<?xml version="1.0" encoding="utf-8"?>
<!-- Generator: Adobe Illustrator 21.1.0, SVG Export Plug-In . SVG Version: 6.00 Build 0)  -->
<svg version="1.1" id="Layer_1" xmlns="http://www.w3.org/2000/svg" xmlns:xlink="http://www.w3.org/1999/xlink" x="0px" y="0px"
	 viewBox="0 0 939 900" style="enable-background:new 0 0 939 900;" xml:space="preserve">
<g>
	<path d="M573,647.4c-9,8.5-17.7,17-26.6,25.1c-23.6,21.3-49.1,39.7-78.8,51.6c-21.2,8.5-43.3,13.7-66.1,15.2
		c-19.2,1.2-38.5,2.4-57.6,1.4c-51.1-2.7-96.3-19.9-131.4-58.8c-22.4-24.8-35.4-54.4-42.2-86.8c-6.5-31-7.5-62.3-2.9-93.5
		c10.2-70.1,46-123.4,106.9-159.7c33-19.6,69.2-30.5,106.5-38.1c34.9-7.1,70.2-11.5,105.6-15.1c19.1-1.9,38.2-4,57.4-6
		c2.5-0.3,3.4-1.1,3.4-3.7c-0.2-18.4,0.1-36.8-0.6-55.1c-0.6-16.1-3.6-31.8-11.4-46.1c-10.6-19.6-27.5-31.2-48.6-36.3
		c-34.3-8.3-66.8-3.8-96.2,16.5c-19.3,13.4-30.6,32.5-35.7,55.3c-1.9,8.6-5,16.5-12.3,22c-4.1,3.1-8.6,4.4-13.7,3.8
		c-39.1-4.3-78.2-8.5-117.3-12.8c-2.5-0.3-5-0.5-7.4-1.2c-13.6-4-19.9-13.8-17.2-27.5c12.4-63.8,44.5-114.5,99.8-149.7
		c28.6-18.2,59.9-29.9,92.8-37.4c38.7-8.8,77.9-12,117.6-9.9c38.7,2.1,76.2,9.4,112.1,24.2c32.4,13.4,60.5,32.7,82,60.9
		c17.5,22.9,27.4,49,32.5,77.2c5.7,31.3,5.6,62.9,5.6,94.5c0,77.1-0.2,154.2-0.1,231.4c0,10.7,1.1,21.5,2.6,32.1
		c3.2,22.6,12.8,42.6,25.8,61.1c6.4,9.1,13,18,19.6,27c3.7,5.1,6.6,10.5,7.5,16.9c1,7.1-0.8,13.2-6.2,17.9
		C763.3,657,748,670,732.8,683.2c-17.2,14.9-34.3,29.9-51.4,44.9c-9,7.8-18.9,11.5-30.7,6.9c-1.9-0.8-3.8-1.9-5.4-3.2
		c-26.6-21.1-48-46.8-66.1-75.4C577.3,653.3,575.1,650.4,573,647.4z M547.2,386.1c-1.8,0-3.1,0-4.5,0c-21.5,0-43,1.3-64.2,4.7
		c-21.5,3.4-42.5,8.8-62.1,18.7c-22.4,11.3-40.4,27.3-50.7,50.5c-14.3,32.3-15.5,65.6-4.7,99c6.7,20.7,19.6,36.8,40.2,45.4
		c21.8,9.1,43.9,8.4,65.6-0.4c25.7-10.4,43.4-29.6,56.8-53.3c16.3-28.8,22.2-60.2,23.1-92.7c0.6-22.6,0.4-45.2,0.5-67.9
		C547.2,389,547.2,387.7,547.2,386.1z"/>
	<path d="M467.4,900c-78.1-0.3-154.3-12.6-228.2-38.2C161.6,834.9,91.1,795.2,27.6,743C20,736.9,12.8,730.4,5.4,724
		c-1.2-1.1-2.4-2.2-3.3-3.5c-2.6-3.7-2.8-7.4-0.5-10.4c2.1-2.8,6.2-4,10.2-2.2c4,1.7,7.8,4,11.5,6.1c64,36.2,131.6,63.7,202.4,83.5
		c34.3,9.6,68.9,17.2,104,22.9c33.9,5.5,68,9,102.4,10.8c32.1,1.6,64.2,1.7,96.3-0.2c33.4-1.9,66.7-5.7,99.7-11.3
		c53-9,104.9-22.2,155.4-40.3c16.6-6,33-12.7,49.5-19.1c4.4-1.7,8.9-2.6,13.5-1.2c9.7,3,12.8,12.9,6.5,20.8c-1.6,2-3.7,3.7-5.8,5.2
		c-38.4,28-80.3,49.6-124.6,66.9c-42.3,16.5-85.8,28.6-130.4,36.7C550.9,895.9,509.4,900,467.4,900z"/>
	<path d="M869.7,688.4c20.1,0.3,36.5,1.5,52.5,6.2c13.4,3.9,16.5,8.2,16.8,22.3c0.3,15.2-2.3,30.1-6.1,44.7
		c-7.1,27.4-18.1,53.1-35.7,75.5c-5.8,7.4-12.9,13.9-19.5,20.7c-1.2,1.2-2.8,2.1-4.4,2.9c-2.7,1.3-5.6,2-8.1-0.2
		c-2.4-2.2-1.8-5-0.9-7.7c1.1-3.2,2.4-6.3,3.7-9.4c9.2-23.8,18.6-47.6,23.9-72.7c1.8-8.4,2.3-17,2.7-25.6
		c0.3-7.5-3.5-13.4-10.9-15.2c-8.5-2.2-17.3-4-26.1-4.5c-22.3-1.2-44.4,0.8-66.5,3.3c-6.7,0.8-13.4,1.6-20.1,2.2
		c-2.9,0.3-5.9,0-7.5-3c-1.6-3.1-0.3-6,1.9-7.8c5-3.9,10.2-7.7,15.7-10.7c20.9-11.4,43.5-17.3,67-19.5
		C856.6,689.2,864.9,688.7,869.7,688.4z"/>
</g>
</svg>
