<?xml version="1.0" encoding="utf-8"?>
<!-- Generator: Adobe Illustrator 21.1.0, SVG Export Plug-In . SVG Version: 6.00 Build 0)  -->
<svg version="1.1" id="Layer_1" xmlns="http://www.w3.org/2000/svg" xmlns:xlink="http://www.w3.org/1999/xlink" x="0px" y="0px"
	 viewBox="0 0 200 200" style="enable-background:new 0 0 200 200;" xml:space="preserve">
<g>
	<path d="M180.2,69.6c-5.8,3.1-10.5,7.2-14,11.9c-16.3,21.7-8.2,55.9,20.1,66.5c-1.8,3.7-3.5,7.5-5.5,11.1
		c-6.8,12.2-14.2,23.9-24.8,33.2c-9.3,8.2-19.7,10.1-31.1,4.5c-13.9-6.8-27.8-6.8-41.6-0.2c-13.2,6.3-24.8,3.7-34.7-6.3
		c-16.8-17-27.5-37.3-32.4-60.6c-0.7-3.3-1.3-6.6-1.7-10c-1.3-10.9-0.9-21.8,2.8-32.5c7.2-20.7,21.7-33.4,43.6-37
		c7-1.1,13.8,0.4,20.5,2.6c4.2,1.4,8.4,2.8,12.6,4.1c6.8,2,13.5,1.8,20.2-0.5c5.6-1.9,11.1-4.1,16.8-5.4
		c18.1-3.9,33.1,2.2,45.9,14.8C178.1,67.1,179.1,68.3,180.2,69.6z"/>
	<path d="M97.3,49.8c-1.3-6.7-0.2-13.1,2.4-19.2c7.5-17.4,21-27.3,39.5-30.6c0.4-0.1,0.9,0,1.3,0C145.1,19,126.3,50.2,97.3,49.8z"/>
</g>
</svg>
