<?xml version="1.0" encoding="utf-8"?>
<!-- Generator: Adobe Illustrator 21.1.0, SVG Export Plug-In . SVG Version: 6.00 Build 0)  -->
<svg version="1.1" id="Layer_1" xmlns="http://www.w3.org/2000/svg" xmlns:xlink="http://www.w3.org/1999/xlink" x="0px" y="0px"
	 viewBox="0 0 415 380" style="enable-background:new 0 0 415 380;" xml:space="preserve">
<path d="M328.8,147.2c-2,19.5-3.8,37.6-5.7,55.8c-0.3,2.8-0.8,5.6-0.9,8.4c-0.1,3.4-1.5,4.5-4.9,4.5c-15.8-0.2-31.7-0.1-47.5-0.1
	c-1.8,0-3.6,0-6.2,0c0,46.4,0,92.3,0,138.5c-27.9,0-55,0-82.9,0c0-46.1,0-92,0-138.4c-14.7,0-28.7,0-43,0c0-22.9,0-45.3,0-68.2
	c11.7,0,23.1,0,34.6,0c9.7,0,8.6,1.1,8.7-8.4c0.1-16.5-0.3-33,0.4-49.5c0.7-16.5,4.2-32.6,13.3-46.9c10.7-16.8,26.8-25.5,45.7-29.2
	c9.7-1.9,19.8-2.8,29.7-3.1c17.8-0.5,35.7-0.2,53.5-0.2c1.6,0,3.3,0.2,5.1,0.3c0,22.5,0,44.6,0,67.3c-1.9,0.1-3.9,0.2-5.8,0.3
	c-13,0.3-26,0.1-38.9,1c-12.4,0.9-18.9,6.8-19.7,19.1c-0.9,15.9-0.2,31.9-0.2,48.8C285.6,147.2,307,147.2,328.8,147.2z"/>
</svg>
