<?xml version="1.0" encoding="utf-8"?>
<!-- Generator: Adobe Illustrator 21.1.0, SVG Export Plug-In . SVG Version: 6.00 Build 0)  -->
<svg version="1.1" id="Layer_1" xmlns="http://www.w3.org/2000/svg" xmlns:xlink="http://www.w3.org/1999/xlink" x="0px" y="0px"
	 viewBox="0 0 504 504" style="enable-background:new 0 0 504 504;" xml:space="preserve">
<style type="text/css">
	.st0{fill:none;}
</style>
<g>
	<path d="M1,252.5c0-28.3-0.6-56.7,0.2-85c0.6-23.2,1.7-46.6,8.8-69.1C15.1,82.2,22.2,67,32.9,53.8c19-23.7,43.7-38.6,73.2-45.8
		c17-4.2,34.3-5.9,51.8-6c60-0.3,120.1-1.2,180.2-0.8c26.3,0.2,52.8,1.9,77.9,11.7c14.6,5.7,28,13.1,40,23.4
		c24.7,21.1,38.5,48,43.9,79.5c2.2,12.9,3.8,26.1,3.9,39.2c0.7,61.1,1.3,122.2,0.9,183.3c-0.2,26.3-1.9,52.8-11.7,77.9
		c-5.7,14.6-13.2,27.9-23.4,40c-21,24.5-47.8,38.3-79,43.7c-14,2.4-28.4,3.8-42.7,4c-60.4,0.7-120.9,1.4-181.3,0.9
		c-26-0.2-52.1-2.1-76.9-11.7c-14.4-5.6-27.7-13-39.6-23.2c-20-17.1-33-38.3-40.3-63.3c-3.8-12.9-6.5-26-6.8-39.5
		c-1-38.2-2-76.4-2.9-114.6C0.4,252.5,0.7,252.5,1,252.5z M459,165c-1.5-13.6-2.4-25.1-4-36.5c-3.2-22.5-12.1-42-29.9-57.2
		c-13.2-11.3-28.5-17.8-45-20c-20.9-2.7-42.1-4.2-63.1-4.1c-56.9,0.1-113.8-2.1-170.6,1.8c-8.3,0.6-16.7,1.3-24.8,3.1
		c-19.7,4.3-36.9,13.1-50.4,29c-11.1,13.1-17.4,28.2-19.8,44.6c-2.7,18.7-4.1,37.7-4.1,56.6c-0.2,53.3,0.3,106.5,0.9,159.8
		c0.1,11.8,1.3,23.7,3,35.4c3.1,22.5,12.1,42,29.9,57.2c13.2,11.3,28.5,17.8,45,20c20.9,2.7,42.1,4.2,63.1,4.1
		c56.9-0.1,113.8,2.1,170.6-1.8c8.3-0.6,16.7-1.3,24.8-3.1c19.8-4.3,36.9-13.1,50.4-29c11.1-13.1,17.4-28.2,19.8-44.6
		c2.7-18.7,4-37.7,4.2-56.6C459.4,270.1,459,216.5,459,165z"/>
	<path d="M383,252.9c-0.1,71.4-57.6,131.7-133.6,130c-67.7-1.5-128.3-56.8-126.3-134.1c1.7-67.2,56.7-127.7,134.2-125.7
		C325.3,124.9,382.5,180,383,252.9z M253,170c-45.5-1.4-80.8,38.2-83.2,76.8c-3.3,53.2,40.4,87.1,76.9,89.3
		c53.3,3.3,87.2-40.5,89.5-77.3C339.6,207.1,295.2,167.9,253,170z"/>
	<path d="M387.5,88c15.5-1.5,31.4,14.2,30.8,31.8c-0.5,13.7-13.7,30.6-32.7,29.5c-13-0.7-30-13.6-28.9-32.7
		C357.4,102.8,371.1,86.4,387.5,88z"/>
	<path class="st0" d="M253,170c42.1-2.1,86.5,37.2,83.2,88.9c-2.4,36.7-36.2,80.6-89.5,77.3c-36.5-2.3-80.1-36.2-76.9-89.3
		C172.2,208.1,207.5,168.6,253,170z"/>
</g>
</svg>
