<?xml version="1.0" encoding="utf-8"?>
<!-- Generator: Adobe Illustrator 24.3.0, SVG Export Plug-In . SVG Version: 6.00 Build 0)  -->
<svg version="1.1" id="Layer_1" xmlns="http://www.w3.org/2000/svg" xmlns:xlink="http://www.w3.org/1999/xlink" x="0px" y="0px"
	 viewBox="0 0 225 225" style="enable-background:new 0 0 225 225;" xml:space="preserve">
<g>
	<path d="M81.2,75.4c14.7,0,29.1,0,44.2,0c0,5.8,0,11.4,0,17c0.4,0.1,0.8,0.3,1.1,0.4c1.6-2,3.2-4,4.9-5.9
		c14.6-15.7,39.4-20.7,61.4-12.4c18.4,6.9,30.9,25.4,31.1,47.1c0.3,32.8,0.2,65.7,0.3,98.5c0,1.1-0.1,2.2-0.2,3.7
		c-15,0-29.8,0-45.3,0c0-10.2,0.1-20.3,0-30.4c-0.2-18-0.3-36-0.8-54c-0.4-16.9-9.7-26.9-24.5-26.8c-16.1,0.1-26.9,10.5-27.3,26.9
		c-0.5,26.2-0.7,52.3-1,78.5c0,1.8,0,3.6,0,5.8c-14.8,0-29.2,0-43.9,0C81.2,174.4,81.2,125.1,81.2,75.4z"/>
	<path d="M5.8,75.4c15.2,0,30.1,0,45.3,0c0,49.5,0,98.7,0,148.4c-15,0-30,0-45.3,0C5.8,174.4,5.8,125,5.8,75.4z"/>
	<path d="M55.2,28.3c-0.1,15.3-12.1,27.2-27.3,27.3C13.3,55.5,1,43.2,1,28.3C1,12.9,13,0.6,27.9,0.7C43.7,0.8,55.3,12.5,55.2,28.3z"
		/>
</g>
</svg>
