<?xml version="1.0" encoding="utf-8"?>
<!-- Generator: Adobe Illustrator 21.1.0, SVG Export Plug-In . SVG Version: 6.00 Build 0)  -->
<svg version="1.1" id="Layer_1" xmlns="http://www.w3.org/2000/svg" xmlns:xlink="http://www.w3.org/1999/xlink" x="0px" y="0px"
	 viewBox="0 0 239 239" style="enable-background:new 0 0 239 239;" xml:space="preserve">
<g>
	<path d="M128.5,238.7c-6,0-12,0-18,0c-2.8-0.4-5.6-0.8-8.4-1c-25.3-2-48.5-9.7-69.1-24.9C15.7,200,5.2,183.2,2.5,161.9
		c-3.4-27-3-54.2-0.6-81.3C4.2,55,17.1,35.8,38.7,21.8C63.1,6,90,0.2,118.6,0.3c0.6,0,1.2,0.4,2.3,0.8c0,61.3,0,122.5,0,183.8
		c10,0,19.4,0,29.5,0c0-15.9,0-31.5,0-47.2c7.6,10.2,13.8,20.9,21,30.8c3.7,5.1,8.6,9.9,14.1,12.8c9.7,5.1,20.6,4.1,31.5,3.8
		c0-9.4,0-18.3,0-27.4c-1.2-0.2-2.2-0.4-3.1-0.4c-10.6,0.8-17.7-4.2-22.8-13.1c-3.6-6.2-7.4-12.3-11.5-18.2c-2-2.9-2-4.9,0.2-7.9
		c11.6-15.8,23-31.9,34.5-47.8c1-1.4,1.9-2.9,3.4-5.1c-10.7,0-20.3,0.2-29.9-0.1c-3.7-0.1-6.1,1-8.2,4.1
		c-8.5,12.2-17.2,24.1-25.9,36.2c-0.8,1.1-1.7,2.1-3.1,3.6c0-36,0-71.1,0-106.4c1.3,0.1,2.3,0.2,3.2,0.4
		c19.3,3.5,36.9,11.2,52.7,22.9c17.1,12.6,27.4,29.5,30.1,50.5c3.4,26.9,3,53.9,0.6,80.8c-1.9,22.3-11.7,40.7-29.9,54.3
		c-14.1,10.5-29.5,18.3-46.7,21.9C150,235.9,139.2,237,128.5,238.7z M109.6,78.3c-1.1-1.1-2.1-2.2-3.3-3c-1.9-1.4-3.7-2.9-5.8-4
		c-16.2-8.4-33.2-9.5-50.4-3.8c-17.1,5.7-26.1,20.8-24.4,39.1c1.6,17.1,11.6,27,30.7,30.1c6.2,1,12.5,1.8,18.8,2.9
		c4.6,0.9,7.2,3.7,7.6,8.6c0.3,5-1.8,8.4-6.4,10.2c-2.1,0.8-4.5,1.3-6.8,1.5c-11,0.7-21.6-0.6-29.9-7.1c-6.4,6.4-12.5,12.5-19,19
		c0.4,0.3,1.3,1,2.2,1.8c16.1,14.2,49.5,17.5,69.5,6.9c15.3-8.1,21.9-22.5,18.8-40.9c-2.5-15.2-11.9-23.8-29.4-26.7
		c-6.4-1.1-12.9-1.7-19.3-3c-4.4-0.8-7.8-3.2-8.3-8.1c-0.5-4.4,2.3-8.6,7.1-10.3c2.3-0.8,4.9-1.3,7.3-1.4c8.3-0.3,16.3,0.9,22.4,6.6
		C97.4,90.4,103.3,84.6,109.6,78.3z"/>
</g>
</svg>
