<?xml version="1.0" encoding="utf-8"?>
<!-- Generator: Adobe Illustrator 21.1.0, SVG Export Plug-In . SVG Version: 6.00 Build 0)  -->
<svg version="1.1" id="Layer_1" xmlns="http://www.w3.org/2000/svg" xmlns:xlink="http://www.w3.org/1999/xlink" x="0px" y="0px"
	 viewBox="0 0 512 512" style="enable-background:new 0 0 512 512;" xml:space="preserve">
<path d="M241,0c10,0,20,0,30,0c1.3,0.3,2.6,0.7,3.9,0.8c31.2,2.1,61.2,9.5,89.3,23.2c78.8,38.6,127,101.1,143.8,187.4
	c1.9,9.7,2.7,19.7,4,29.5c0,10,0,20,0,30c-0.3,1.4-0.7,2.9-0.8,4.3c-2.5,35.9-12,69.9-29.4,101.3c-40,72-100.5,116.1-181.6,131.4
	c-9.6,1.8-19.4,2.7-29.1,4c-10,0-20,0-30,0c-1.3-0.3-2.6-0.7-3.9-0.8c-31.4-2.1-61.6-9.5-89.7-23.4C68.9,449,20.8,386.6,4,300.5
	c-1.9-9.7-2.7-19.7-4-29.5c0-10,0-20,0-30c0.3-1.4,0.7-2.9,0.8-4.3c2.5-35.9,12-69.9,29.4-101.3C70.3,63.4,130.8,19.3,211.9,4
	C221.5,2.2,231.3,1.3,241,0z M211.8,135c-6.5,0-13-0.1-19.5,0c-33.6,0.9-66.7,5.4-99,14.9c-4.2,1.2-8.5,3.3-11.8,6.1
	c-8.5,7.2-10.2,20.6-4.7,30.7c5.6,10.3,16.6,14.6,29.2,11c28-8,56.7-11.7,85.7-13.1c29.7-1.4,59.3,0.1,88.7,4.3
	c41.8,6,82.1,16.6,119.3,37.4c4,2.2,8.6,4,13,4.5c10.6,1,20.4-5.7,23.9-15.3c3.9-10.7,0.8-23.3-8.3-29.1c-9.1-5.8-18.6-11-28.5-15.4
	C340.2,144.2,276.8,135,211.8,135z M402.2,289.4c-0.1-9.1-3.2-15.2-11.9-19.8c-14.3-7.5-28.5-15.2-43.4-21.2
	c-48.9-19.6-100-27-152.5-25.7c-29.7,0.8-58.6,5.9-87.1,13.7c-12.6,3.4-18.8,14.4-15.5,26.6c3,11.1,13.8,17.3,25.4,13.9
	c26.4-7.6,53.3-11.5,80.7-12.2c34.5-1,68.4,3.1,101.8,12c25.9,6.9,50.1,17.7,73.5,30.6C386.8,314.7,402.4,304.8,402.2,289.4z
	 M210.9,305.1c-18.9,1.7-37.9,2.9-56.7,5.3c-13.8,1.8-27.6,4.7-41.1,7.9c-8.9,2.1-13.2,11.4-10.9,20.7c2.1,8.3,9.9,13,18.9,11.5
	c18.2-3,36.4-6.6,54.7-8.8c30.6-3.6,61.2-2.6,91.5,3.4c26,5.2,50.6,13.9,73.6,27.2c3,1.7,6.1,3.6,9.4,4.6c7.2,2.3,15.2-1.4,18.5-8.2
	c3.5-7.2,1.6-17.2-5.1-21.6c-7.2-4.7-14.8-9-22.6-12.8C300.1,314.2,256.4,306.1,210.9,305.1z"/>
</svg>
