<?xml version="1.0" encoding="utf-8"?>
<!-- Generator: Adobe Illustrator 21.1.0, SVG Export Plug-In . SVG Version: 6.00 Build 0)  -->
<svg version="1.1" id="Layer_1" xmlns="http://www.w3.org/2000/svg" xmlns:xlink="http://www.w3.org/1999/xlink" x="0px" y="0px"
	 viewBox="0 0 512 512" style="enable-background:new 0 0 512 512;" xml:space="preserve">
<path d="M4.1,419.1c55.5,4.2,105.9-8.8,151.7-43.2c-22.6-2.5-42.8-8.6-60.1-21.8c-17.3-13.2-29.9-29.9-36.6-51.3
	c15,0.3,29.3,1.7,44.5-2.1c-51.3-16.6-78.6-50.5-81.4-103.8c14.1,6.6,28.7,10.7,45.3,12.1c-46.2-39-55.3-85.2-31.7-140
	C44.8,78,53,86,61.1,94c52.2,51.3,115.3,78.4,187.9,84.3c1.1,0.1,2.2,0,2.5,0c0-9.3,0.1-18.3,0-27.2c-0.5-44.9,34.6-90.3,84.8-99.5
	c33.3-6.1,64,1.6,89.6,24.9c5.3,4.9,10.6,6.5,17.2,4c14.8-5.6,29.5-11.2,44.3-16.8c3.7-1.4,7.3-3.2,12.2-5.4
	c-8.3,23.5-22.8,40.6-40.9,55.4c18.4-1,35.5-7.6,53.5-12.3c-0.9,1.5-1.8,3-2.8,4.3c-12,16.3-25.9,30.9-41.9,43.3
	c-3.6,2.8-5.2,5.8-5.3,10.4c-0.4,23.2-1.9,46.3-7.1,69c-18.2,79.3-59.1,143.5-126.9,189.6c-36.6,24.8-77.1,40.1-121,45
	c-44.8,4.9-89.4,4.1-133-9.9c-22.6-7.3-44-17.1-64.6-28.8c-1.6-0.9-3.1-2-4.6-3C4.7,421.1,4.7,420.7,4.1,419.1z"/>
</svg>
