<?xml version="1.0" encoding="utf-8"?>
<!-- Generator: Adobe Illustrator 21.1.0, SVG Export Plug-In . SVG Version: 6.00 Build 0)  -->
<svg version="1.1" id="Layer_1" xmlns="http://www.w3.org/2000/svg" xmlns:xlink="http://www.w3.org/1999/xlink" x="0px" y="0px"
	 viewBox="0 0 400 400" style="enable-background:new 0 0 400 400;" xml:space="preserve">
<path d="M204.5,346c-16.2,0-32.3,0.1-48.5,0c-14.6-0.2-29.3-0.2-43.9-1.1c-19.4-1.2-38.8-2.4-58-4.9c-20.1-2.6-33.1-14.6-39.6-34
	c-5.9-17.7-7.2-36-7.5-54.2c-0.5-33.3,0.1-66.6,0.9-99.9c0.4-15.5,2.7-30.8,9-45.3c7.2-16.5,20.2-26,37.6-28.6
	c13.6-2,27.5-2.5,41.3-3.1c15.6-0.7,31.3-1.1,46.9-1.2c34.5-0.4,69-1.1,103.4-0.6c31.8,0.5,63.5,2.2,95.3,3.9
	c23.7,1.3,41,15,46.9,38c3.5,13.6,5.9,27.7,6.4,41.7c1.2,30.4,1.6,60.9,1,91.4c-0.4,19-1.5,38.2-7.4,56.7
	c-7.7,24.2-24.8,35.7-48.8,37.2c-26.2,1.6-52.5,2.5-78.8,3.2c-18.8,0.5-37.6,0.1-56.4,0.1C204.5,345.5,204.5,345.8,204.5,346z
	 M264.2,210c-0.1-0.5-0.2-1.1-0.3-1.6c-33.7-17.6-67.4-35.1-101.6-53c0,36.3,0,71.7,0,107.8C196.7,245.2,230.5,227.6,264.2,210z"/>
</svg>
